<svg xmlns="http://www.w3.org/2000/svg" viewBox="0 0 841.9 595.3">
    <symbol id="eye" viewBox="0 0 24 24">
        <path fill-rule="evenodd" clip-rule="evenodd"
              d="M1.79882 1.59857C2.13076 1.26662 2.66895 1.26662 3.0009 1.59857L22.2009 20.7986C22.5329 21.1306 22.5329 21.6687 22.2009 22.0007C21.869 22.3326 21.3308 22.3326 20.9989 22.0007L17.6841 18.6859C17.5784 18.5802 17.4171 18.5533 17.2828 18.619C15.6127 19.4359 13.8125 19.8496 11.9999 19.8496C7.45731 19.8496 2.97413 17.2488 0.439591 12.1798C0.319941 11.9405 0.319941 11.6588 0.439591 11.4195C1.53705 9.22459 2.99942 7.49395 4.67072 6.23685C4.75174 6.17591 4.80235 6.08284 4.80947 5.98171C4.81658 5.88059 4.7795 5.78134 4.70782 5.70966L1.79882 2.80065C1.46687 2.46871 1.46687 1.93052 1.79882 1.59857ZM6.42541 7.42725C6.30508 7.30692 6.11564 7.29057 5.97648 7.38851C4.53807 8.40084 3.25445 9.81207 2.24915 11.6303C2.19088 11.7357 2.19088 11.8636 2.24915 11.969C4.54945 16.1294 8.30308 18.1496 11.9999 18.1496C13.2595 18.1496 14.5279 17.9149 15.7439 17.4392C15.8539 17.3961 15.9348 17.3005 15.959 17.1849C15.9832 17.0693 15.9474 16.9493 15.8639 16.8657L13.7995 14.8013C13.6945 14.6964 13.5348 14.669 13.4009 14.7331C12.9771 14.9359 12.5023 15.0496 11.9999 15.0496C10.2049 15.0496 8.74987 13.5946 8.74987 11.7996C8.74987 11.2973 8.86362 10.8224 9.06643 10.3986C9.1305 10.2647 9.10316 10.105 8.99821 10L6.42541 7.42725Z"
        />
        <path d="M11.7365 5.45304L10.1739 3.8905C10.7781 3.79672 11.3882 3.74961 11.9998 3.74961C16.5424 3.74961 21.0256 6.35042 23.5601 11.4195C23.6798 11.6588 23.6798 11.9405 23.5601 12.1798C22.9818 13.3363 22.3023 14.3639 21.5444 15.261L20.338 14.0546C20.8524 13.4313 21.3263 12.7363 21.7506 11.969C21.8088 11.8636 21.8088 11.7357 21.7506 11.6303C19.4503 7.4699 15.6966 5.44962 11.9998 5.44962C11.9121 5.44962 11.8243 5.45076 11.7365 5.45304Z"
        />
    </symbol>
    <symbol id="searchIcon" viewBox="0 0 16 16">
        <path d="M11.1468 9.49438C13.1058 6.78229 12.4506 3.02684 9.68429 1.10668C6.91795 -0.813484 3.08739 -0.171594 1.12882 2.54095C-0.829756 5.25304 -0.175027 9.00803 2.59178 10.9282C4.56626 12.2987 7.17676 12.4042 9.25935 11.1984L13.7844 15.6082C14.273 16.1124 15.0859 16.1326 15.6003 15.6536C16.1146 15.175 16.1352 14.3781 15.6471 13.8738C15.6316 13.8578 15.6166 13.8431 15.6003 13.8279L11.1468 9.49438ZM6.13406 9.90548C3.94804 9.90594 2.17573 8.16976 2.17432 6.02661C2.17386 3.88346 3.94476 2.14591 6.13125 2.14499C8.31446 2.14407 10.0858 3.8775 10.09 6.01789C10.0938 8.1615 8.32382 9.90181 6.13686 9.90548C6.13593 9.90548 6.13546 9.90548 6.13406 9.90548Z"
        />
    </symbol>
    <symbol id="cross" viewBox="0 0 48 48">
        <path d="M40.6154 37.8456C41.3801 38.6103 41.3801 39.8501 40.6154 40.6148C39.8507 41.3796 38.6108 41.3796 37.8461 40.6149L24 26.7687L10.1538 40.6149C9.38913 41.3796 8.14931 41.3796 7.3846 40.6148C6.6199 39.8501 6.6199 38.6103 7.3846 37.8456L21.2308 23.9995L7.38456 10.1533C6.61986 9.3886 6.61986 8.14878 7.38456 7.38407C8.14926 6.61937 9.38909 6.61937 10.1538 7.38407L24 21.2303L37.8462 7.38407C38.6109 6.61937 39.8507 6.61938 40.6154 7.38408C41.3801 8.14878 41.3801 9.38861 40.6154 10.1533L26.7692 23.9995L40.6154 37.8456Z"
        />
    </symbol>
    <symbol id="like" viewBox="0 0 16 16">
        <path d="M8.5 14.9933C7.95175 14.5169 7.3321 14.0213 6.67675 13.4941H6.66825C4.36051 11.645 1.74507 9.55276 0.589918 7.0457C0.210409 6.24754 0.00928776 5.37915 9.69506e-06 4.49866C-0.00252482 3.29051 0.491974 2.13234 1.37175 1.28592C2.25153 0.439505 3.44233 -0.0237223 4.67501 0.000936424C5.67854 0.00248964 6.66046 0.286693 7.5038 0.819688C7.87437 1.05538 8.20966 1.34047 8.5 1.66676C8.79196 1.34175 9.12734 1.05682 9.49705 0.819688C10.34 0.286587 11.3217 0.00236782 12.325 0.000936424C13.5577 -0.0237223 14.7485 0.439505 15.6282 1.28592C16.508 2.13234 17.0025 3.29051 17 4.49866C16.9913 5.38056 16.7902 6.25043 16.4101 7.04986C15.2549 9.55693 12.6403 11.6484 10.3326 13.4941L10.3241 13.5008C9.6679 14.0247 9.0491 14.5202 8.50085 15L8.5 14.9933Z"
        />
    </symbol>
    <symbol id="comment" viewBox="0 0 16 16">
        <path d="M0 15V1.66667C0 0.746192 0.746192 0 1.66667 0H13.3333C14.2538 0 15 0.746192 15 1.66667V10C15 10.9205 14.2538 11.6667 13.3333 11.6667H5C4.63928 11.666 4.28818 11.783 4 12L0 15Z"
        />
    </symbol>
    <symbol id="dropdownArrow" viewBox="0 0 24 24">
        <path fill-rule="evenodd" clip-rule="evenodd"
              d="M5.29289 8.29289C5.68342 7.90237 6.31658 7.90237 6.70711 8.29289L12 13.5858L17.2929 8.29289C17.6834 7.90237 18.3166 7.90237 18.7071 8.29289C19.0976 8.68342 19.0976 9.31658 18.7071 9.70711L12.7071 15.7071C12.3166 16.0976 11.6834 16.0976 11.2929 15.7071L5.29289 9.70711C4.90237 9.31658 4.90237 8.68342 5.29289 8.29289Z"
              fill="#494949"/>
    </symbol>
</svg>
